<svg width="28" height="30" viewBox="0 0 28 30" fill="none" xmlns="http://www.w3.org/2000/svg">
<path d="M15.4803 4.586C15.8303 4.21106 16.305 4.00043 16.8 4.00043C17.295 4.00043 17.7697 4.21106 18.1197 4.586L26.5197 13.586C26.8697 13.9611 27.0663 14.4697 27.0663 15C27.0663 15.5303 26.8697 16.0389 26.5197 16.414L18.1197 25.414C17.7677 25.7783 17.2961 25.9799 16.8067 25.9753C16.3173 25.9708 15.8491 25.7605 15.503 25.3896C15.1569 25.0188 14.9606 24.5172 14.9563 23.9928C14.9521 23.4684 15.1402 22.9632 15.4803 22.586L20.5333 17H2.79999C2.30491 17 1.83012 16.7893 1.48005 16.4142C1.12999 16.0391 0.933319 15.5304 0.933319 15C0.933319 14.4696 1.12999 13.9609 1.48005 13.5858C1.83012 13.2107 2.30491 13 2.79999 13H20.5333L15.4803 7.414C15.1303 7.03894 14.9337 6.53033 14.9337 6C14.9337 5.46967 15.1303 4.96106 15.4803 4.586Z" fill="white"/>
</svg>
