<svg width="135" height="135" viewBox="0 0 135 135" fill="none" xmlns="http://www.w3.org/2000/svg">
<path d="M45 73.125V25.3125C45 23.0747 45.8889 20.9286 47.4713 19.3463C49.0536 17.7639 51.1997 16.875 53.4375 16.875C55.6753 16.875 57.8214 17.7639 59.4037 19.3463C60.9861 20.9286 61.875 23.0747 61.875 25.3125V67.5M61.875 64.6875V53.4375C61.875 51.1997 62.7639 49.0536 64.3463 47.4713C65.9286 45.8889 68.0747 45 70.3125 45C72.5503 45 74.6964 45.8889 76.2787 47.4713C77.8611 49.0536 78.75 51.1997 78.75 53.4375V67.5M78.75 59.0625C78.75 56.8247 79.6389 54.6786 81.2213 53.0963C82.8036 51.5139 84.9497 50.625 87.1875 50.625C89.4253 50.625 91.5714 51.5139 93.1537 53.0963C94.736 54.6786 95.625 56.8247 95.625 59.0625V67.5" stroke="#F79B0B" stroke-width="5" stroke-linecap="round" stroke-linejoin="round"/>
<path d="M95.625 64.6875C95.625 62.4497 96.514 60.3036 98.0963 58.7213C99.6786 57.1389 101.825 56.25 104.062 56.25C106.3 56.25 108.446 57.1389 110.029 58.7213C111.611 60.3036 112.5 62.4497 112.5 64.6875V90C112.5 98.9511 108.944 107.536 102.615 113.865C96.2855 120.194 87.7011 123.75 78.75 123.75H67.5H68.67C63.0806 123.751 57.5785 122.364 52.6578 119.713C47.737 117.062 43.5516 113.231 40.4775 108.562L39.375 106.875C37.62 104.181 31.4606 93.4425 20.8912 74.655C19.8138 72.7399 19.526 70.4799 20.089 68.3559C20.6521 66.2318 22.0216 64.4112 23.9062 63.2812C25.9137 62.0767 28.266 61.5775 30.5896 61.8629C32.9133 62.1482 35.0749 63.2018 36.7313 64.8562L45 73.125M28.125 16.875L22.5 11.25M22.5 39.375H16.875M78.75 16.875L84.375 11.25M84.375 33.75H90" stroke="#F79B0B" stroke-width="5" stroke-linecap="round" stroke-linejoin="round"/>
</svg>
