<svg width="135" height="135" viewBox="0 0 135 135" fill="none" xmlns="http://www.w3.org/2000/svg">
<g clip-path="url(#clip0_23_41)">
<path d="M106.875 5.31593C109.859 5.31593 112.72 6.5012 114.83 8.61098C116.94 10.7208 118.125 13.5822 118.125 16.5659V84.0659C118.125 87.0496 116.94 89.9111 114.83 92.0209C112.72 94.1307 109.859 95.3159 106.875 95.3159H95.625V106.566C95.625 109.55 94.4397 112.411 92.3299 114.521C90.2202 116.631 87.3587 117.816 84.375 117.816H28.125C25.1413 117.816 22.2798 116.631 20.17 114.521C18.0603 112.411 16.875 109.55 16.875 106.566V39.0659C16.875 36.0822 18.0603 33.2208 20.17 31.111C22.2798 29.0012 25.1413 27.8159 28.125 27.8159H39.375V16.5659C39.375 13.5822 40.5603 10.7208 42.67 8.61098C44.7798 6.5012 47.6413 5.31593 50.625 5.31593H106.875ZM84.375 39.0659H28.125V106.566H84.375V39.0659ZM56.25 78.4409C57.7418 78.4409 59.1726 79.0336 60.2275 80.0885C61.2824 81.1433 61.875 82.5741 61.875 84.0659C61.875 85.5578 61.2824 86.9885 60.2275 88.0434C59.1726 89.0983 57.7418 89.6909 56.25 89.6909H45C43.5082 89.6909 42.0774 89.0983 41.0225 88.0434C39.9676 86.9885 39.375 85.5578 39.375 84.0659C39.375 82.5741 39.9676 81.1433 41.0225 80.0885C42.0774 79.0336 43.5082 78.4409 45 78.4409H56.25ZM106.875 16.5659H50.625V27.8159H84.375C87.3587 27.8159 90.2202 29.0012 92.3299 31.111C94.4397 33.2208 95.625 36.0822 95.625 39.0659V84.0659H106.875V16.5659ZM67.5 55.9409C68.9337 55.9425 70.3127 56.4915 71.3552 57.4757C72.3977 58.4599 73.0251 59.805 73.1091 61.2363C73.1931 62.6675 72.7275 64.0768 71.8073 65.1762C70.8871 66.2757 69.5818 66.9822 68.1581 67.1516L67.5 67.1909H45C43.5663 67.1893 42.1873 66.6404 41.1448 65.6562C40.1023 64.672 39.4749 63.3268 39.3909 61.8956C39.3069 60.4644 39.7725 59.055 40.6927 57.9556C41.6129 56.8562 42.9182 56.1496 44.3419 55.9803L45 55.9409H67.5Z" fill="#F79B0B"/>
</g>
<defs>
<clipPath id="clip0_23_41">
<rect width="135" height="135" fill="white"/>
</clipPath>
</defs>
</svg>
